# xmcd
#
# Track frame offsets: 
#        150
#        15917
#        32156
#        49413
#        65320
#        81212
#        95368
#        111051
#        126634
#        141146
#        156988
#
# Disc length: 2294 seconds
#
# Revision: 1
# Processed by: cddbd v1.5.2PL0 Copyright (c) Steve Scherf et al.
# Submitted via: ExactAudioCopyFreeDBPlugin 1.0
#
DISCID=9108f40b
DTITLE=Blake Shelton - Red River Blue
DYEAR=2011
DGENRE=Country
TTITLE0=Honey Bee
TTITLE1=Ready To Roll
TTITLE2=God Gave Me You
TTITLE3=Get Some
TTITLE4=Drink On It
TTITLE5=Good Ole Boys
TTITLE6=I'm Sorry
TTITLE7=Sunny In Seattle
TTITLE8=Over
TTITLE9=Hey
TTITLE10=Red River Blue
EXTD=
EXTT0=
EXTT1=
EXTT2=
EXTT3=
EXTT4=
EXTT5=
EXTT6=
EXTT7=
EXTT8=
EXTT9=
EXTT10=
PLAYORDER=
